<svg data-v-0dd9719b="" version="1.0" xmlns="http://www.w3.org/2000/svg" xmlns:xlink="http://www.w3.org/1999/xlink" width="100%" height="100%" viewBox="0 0 325.000000 250.000000" preserveAspectRatio="xMidYMid meet" color-interpolation-filters="sRGB" style="margin: auto;"> <rect data-v-0dd9719b="" x="0" y="0" width="100%" height="100%" fill="#ffffff" fill-opacity="0" class="background"></rect> <rect data-v-0dd9719b="" x="0" y="0" width="100%" height="100%" fill="url(#watermark)" fill-opacity="1" class="watermarklayer"></rect> <g data-v-0dd9719b="" fill="#333" class="icon-text-wrapper icon-svg-group iconsvg" transform="translate(90.19999694824219,22.797134399414062)"><g class="iconsvg-imagesvg" transform="translate(0,0)" mask="url(#d9107b07-714a-4e2f-b5cc-74764fa5ceed)"><g><rect fill="#333" fill-opacity="0" stroke-width="2" x="0" y="0" width="159.60000000000008" height="204.40573770491812" class="image-rect"></rect> <svg x="0" y="0" width="159.60000000000008" height="204.40573770491812" filtersec="colorsb6781292000" class="image-svg-svg primary" style="overflow: visible;"><svg xmlns="http://www.w3.org/2000/svg" viewBox="0 0 78.08000183105469 100"><path fill="#333" d="M39.04 52.42v16.86l-13.4-8.43 13.4-8.43zM15.99 34.65l7.12 4.48-16 10.06L0 44.71l15.99-10.06zM52.41 60.87l-13.37 8.41V52.42l.01-.01 13.36 8.46zM54.97 39.13l7.12-4.48 15.99 10.06-7.11 4.48-16-10.06z"></path><path fill="#ff6a01" d="M0 44.71l39.04-24.57V0L0 24.58v20.13z"></path><path fill="#cf5904" d="M39.04 20.14l39.04 24.57V24.58L39.04 0v20.14z"></path><path fill="#333" d="M15.99 65.36l23.05 14.51V100L0 75.43l15.99-10.07zM39.04 79.87l23.05-14.51 15.99 10.07L39.04 100V79.87z"></path><path fill="#ff6a01" d="M0 75.43l39.04-24.58V30.71L0 55.29v20.14z"></path><path fill="#cf5904" d="M39.04 50.85l39.04 24.58V55.29L39.04 30.71v20.14z"></path></svg></svg> <!----></g><rect v-gra="id" width="171.60000610351562" height="216.40573120117188" transform="translate(-6, -6)" style="pointer-events:none;" fill="url(#5DI6CvnsgJyVA7sUhMG95)"></rect></g> <g transform="translate(223.8000030517578,64.40573120117188)"><g data-gra="path-name" fill-rule="" class="tp-name iconsvg-namesvg"><g transform="scale(1)"><g><path d="" transform="translate(0, 0)"></path></g> <!----> <!----> <!----> <!----> <!----> <!----> <!----></g></g> <!----></g></g><defs v-gra="od"></defs><defs v-gra="id"><filter id="0291032c-28e3-45ee-98f0-11fad176ef88" filterUnits="userSpaceOnUse"><feColorMatrix type="matrix" values="0 0 0 0 0.99609375  0 0 0 0 0.99609375  0 0 0 0 0.99609375  0 0 0 1 0"></feColorMatrix></filter><linearGradient x1="0" y1="1" x2="0" y2="0" id="5DI6CvnsgJyVA7sUhMG95"><stop offset="0%" stop-color="#09f524"></stop><stop offset="50%" stop-color="#2ec0c6"></stop><stop offset="100%" stop-color="#06fff7"></stop></linearGradient><filter id="42443b3f1de60f6b6fd3b6a9844b4764" filterUnits="objectBoundingBox"><feColorMatrix type="matrix" values="0 0 0 0 0.99609375  0 0 0 0 0.99609375  0 0 0 0 0.99609375  0 0 0 1 0"></feColorMatrix></filter></defs><mask v-gra="im" id="d9107b07-714a-4e2f-b5cc-74764fa5ceed"><g class="iconsvg-imagesvg" filter="url(#0291032c-28e3-45ee-98f0-11fad176ef88)"><g><rect fill="#333" fill-opacity="0" stroke-width="2" x="0" y="0" width="159.60000000000008" height="204.40573770491812" class="image-rect"></rect> <svg x="0" y="0" width="159.60000000000008" height="204.40573770491812" filtersec="colorsb6781292000" class="image-svg-svg primary" style="overflow: visible;"><svg xmlns="http://www.w3.org/2000/svg" viewBox="0 0 78.08000183105469 100"><path fill="#333" d="M39.04 52.42v16.86l-13.4-8.43 13.4-8.43zM15.99 34.65l7.12 4.48-16 10.06L0 44.71l15.99-10.06zM52.41 60.87l-13.37 8.41V52.42l.01-.01 13.36 8.46zM54.97 39.13l7.12-4.48 15.99 10.06-7.11 4.48-16-10.06z"></path><path fill="#ff6a01" d="M0 44.71l39.04-24.57V0L0 24.58v20.13z"></path><path fill="#cf5904" d="M39.04 20.14l39.04 24.57V24.58L39.04 0v20.14z"></path><path fill="#333" d="M15.99 65.36l23.05 14.51V100L0 75.43l15.99-10.07zM39.04 79.87l23.05-14.51 15.99 10.07L39.04 100V79.87z"></path><path fill="#ff6a01" d="M0 75.43l39.04-24.58V30.71L0 55.29v20.14z"></path><path fill="#cf5904" d="M39.04 50.85l39.04 24.58V55.29L39.04 30.71v20.14z"></path></svg></svg> <!----></g></g></mask></svg>